<svg width="60" height="60" viewBox="0 0 60 60" fill="none" xmlns="http://www.w3.org/2000/svg">
<circle cx="30" cy="30" r="30" fill="#FFE2E8"/>
<path d="M42.4002 37.3L20.5002 39.4C19.6002 39.5 18.8002 38.8 18.7002 37.9L17.4002 23.9C17.3002 22.9 18.0002 22.1 18.9002 22L40.7002 20C41.6002 19.9 42.4002 20.6 42.5002 21.5L43.8002 35.5C44.0002 36.4 43.3002 37.2 42.4002 37.3Z" stroke="#292223" stroke-width="1.8" stroke-miterlimit="10" stroke-linecap="round"/>
<path d="M21.4004 33.1L23.4004 33" stroke="#292223" stroke-width="1.4" stroke-miterlimit="10" stroke-linecap="round"/>
<path d="M25.4004 32.8L27.5004 32.6" stroke="#292223" stroke-width="1.4" stroke-miterlimit="10" stroke-linecap="round"/>
<path d="M29.5 32.4L31.5 32.2" stroke="#292223" stroke-width="1.4" stroke-miterlimit="10" stroke-linecap="round"/>
<path d="M33.5 32L35.5 31.8" stroke="#292223" stroke-width="1.4" stroke-miterlimit="10" stroke-linecap="round"/>
<path d="M21.6016 35.7L30.2016 34.9" stroke="#292223" stroke-width="1.4" stroke-miterlimit="10" stroke-linecap="round"/>
<path d="M39.1016 34L41.3016 33.8" stroke="#292223" stroke-width="1.4" stroke-miterlimit="10" stroke-linecap="round"/>
<path d="M24.0016 28.5L22.1016 28.7C21.5016 28.8 21.1016 28.3 21.0016 27.8L20.9015 26.7C20.8015 26.1 21.3016 25.7 21.8016 25.6L23.7016 25.4C24.3016 25.3 24.7016 25.8 24.8016 26.3L24.9016 27.4C25.0016 28 24.6016 28.5 24.0016 28.5Z" stroke="#292223" stroke-width="1.4" stroke-miterlimit="10" stroke-linecap="round"/>
</svg>
