<svg width="38" height="34" viewBox="0 0 38 34" fill="none" xmlns="http://www.w3.org/2000/svg">
<path d="M31.4002 24.3L9.50015 26.4C8.60015 26.5 7.80015 25.8 7.70015 24.9L6.40015 10.9C6.30015 9.90001 7.00015 9.10001 7.90015 9.00001L29.7002 7.00001C30.6002 6.90001 31.4002 7.6 31.5002 8.5L32.8002 22.5C33.0002 23.4 32.3002 24.2 31.4002 24.3Z" stroke="#292223" stroke-width="1.8" stroke-miterlimit="10" stroke-linecap="round"/>
<path d="M10.4004 20.1L12.4004 20" stroke="#292223" stroke-width="1.4" stroke-miterlimit="10" stroke-linecap="round"/>
<path d="M14.4004 19.8L16.5004 19.6" stroke="#292223" stroke-width="1.4" stroke-miterlimit="10" stroke-linecap="round"/>
<path d="M18.5 19.4L20.5 19.2" stroke="#292223" stroke-width="1.4" stroke-miterlimit="10" stroke-linecap="round"/>
<path d="M22.5 19L24.5 18.8" stroke="#292223" stroke-width="1.4" stroke-miterlimit="10" stroke-linecap="round"/>
<path d="M10.6016 22.7L19.2016 21.9" stroke="#292223" stroke-width="1.4" stroke-miterlimit="10" stroke-linecap="round"/>
<path d="M28.1016 21L30.3016 20.8" stroke="#292223" stroke-width="1.4" stroke-miterlimit="10" stroke-linecap="round"/>
<path d="M13.0016 15.5L11.1016 15.7C10.5016 15.8 10.1016 15.3 10.0016 14.8L9.90154 13.7C9.80154 13.1 10.3016 12.7 10.8016 12.6L12.7016 12.4C13.3016 12.3 13.7016 12.8 13.8016 13.3L13.9016 14.4C14.0016 15 13.6016 15.5 13.0016 15.5Z" stroke="#292223" stroke-width="1.4" stroke-miterlimit="10" stroke-linecap="round"/>
</svg>
