<svg width="35" height="35" viewBox="0 0 35 35" fill="none" xmlns="http://www.w3.org/2000/svg">
<path d="M28.9869 26.09L27.7477 10.3338C27.6706 9.31859 26.8198 8.52344 25.811 8.52344H23.3635V8.41242C23.3635 5.42796 20.9575 3 18.0001 3C15.0427 3 12.6367 5.42796 12.6367 8.41237V8.52338H10.1893C9.18038 8.52338 8.32961 9.31854 8.25266 10.3316L7.01311 26.0922C6.91719 27.3541 7.351 28.6104 8.20323 29.5389C9.05547 30.4674 10.2636 31 11.5178 31H24.4824C25.7365 31 26.9447 30.4675 27.7969 29.5389C28.6491 28.6104 29.0829 27.3541 28.9869 26.09ZM14.2619 8.41237C14.2619 6.33233 15.9389 4.64008 18.0001 4.64008C20.0612 4.64008 21.7382 6.33238 21.7382 8.41237V8.52338H14.2619V8.41237ZM26.6046 28.4245C26.0508 29.0277 25.2972 29.3599 24.4824 29.3599H11.5178C10.703 29.3599 9.94937 29.0277 9.39563 28.4245C8.84195 27.8212 8.57131 27.0375 8.63352 26.2198L9.87291 10.4591C9.88548 10.2933 10.0244 10.1635 10.1892 10.1635H12.6367V12.1833C12.6367 12.6362 13.0005 13.0034 13.4493 13.0034C13.8981 13.0034 14.2619 12.6362 14.2619 12.1833V10.1635H21.7383V12.1833C21.7383 12.6362 22.1021 13.0034 22.5509 13.0034C22.9997 13.0034 23.3635 12.6362 23.3635 12.1833V10.1635H25.811C25.9758 10.1635 26.1147 10.2933 26.1274 10.4613L27.3666 26.2176C27.4289 27.0375 27.1582 27.8212 26.6046 28.4245Z" fill="#292223" stroke="#292223" stroke-width="0.4"/>
</svg>
