<svg width="30" height="30" viewBox="0 0 30 30" fill="none" xmlns="http://www.w3.org/2000/svg">
<rect width="30" height="30" fill="white"/>
<path d="M6.83594 14.4125H11.4766C13.0956 14.4125 14.4125 13.0956 14.4125 11.4766V6.83594C14.4125 5.21695 13.0956 3.9 11.4766 3.9H6.83594C5.21695 3.9 3.9 5.21695 3.9 6.83594V11.4766C3.9 13.0956 5.21695 14.4125 6.83594 14.4125ZM5.475 6.83594C5.475 6.08559 6.08559 5.475 6.83594 5.475H11.4766C12.2269 5.475 12.8375 6.08559 12.8375 6.83594V11.4766C12.8375 12.2269 12.2269 12.8375 11.4766 12.8375H6.83594C6.08559 12.8375 5.475 12.2269 5.475 11.4766V6.83594Z" fill="#B3B7C2" stroke="#B3B7C2" stroke-width="0.2"/>
<path d="M18.5234 14.4125H23.1641C24.7831 14.4125 26.1 13.0956 26.1 11.4766V6.83594C26.1 5.21695 24.7831 3.9 23.1641 3.9H18.5234C16.9044 3.9 15.5875 5.21695 15.5875 6.83594V11.4766C15.5875 13.0956 16.9044 14.4125 18.5234 14.4125ZM17.1625 6.83594C17.1625 6.08559 17.7731 5.475 18.5234 5.475H23.1641C23.9144 5.475 24.525 6.08559 24.525 6.83594V11.4766C24.525 12.2269 23.9144 12.8375 23.1641 12.8375H18.5234C17.7731 12.8375 17.1625 12.2269 17.1625 11.4766V6.83594Z" fill="#B3B7C2" stroke="#B3B7C2" stroke-width="0.2"/>
<path d="M15.5875 20.8438C15.5875 23.7421 17.9454 26.1 20.8438 26.1C23.7421 26.1 26.1 23.7421 26.1 20.8438C26.1 17.9454 23.7421 15.5875 20.8438 15.5875C17.9454 15.5875 15.5875 17.9454 15.5875 20.8438ZM17.1625 20.8438C17.1625 18.814 18.814 17.1625 20.8438 17.1625C22.8735 17.1625 24.525 18.814 24.525 20.8438C24.525 22.8735 22.8735 24.525 20.8438 24.525C18.814 24.525 17.1625 22.8735 17.1625 20.8438Z" fill="#B3B7C2" stroke="#B3B7C2" stroke-width="0.2"/>
<path d="M6.83594 26.1H11.4766C13.0956 26.1 14.4125 24.7831 14.4125 23.1641V18.5234C14.4125 16.9044 13.0956 15.5875 11.4766 15.5875H6.83594C5.21695 15.5875 3.9 16.9044 3.9 18.5234V23.1641C3.9 24.7831 5.21695 26.1 6.83594 26.1ZM5.475 18.5234C5.475 17.7731 6.08559 17.1625 6.83594 17.1625H11.4766C12.2269 17.1625 12.8375 17.7731 12.8375 18.5234V23.1641C12.8375 23.9144 12.2269 24.525 11.4766 24.525H6.83594C6.08559 24.525 5.475 23.9144 5.475 23.1641V18.5234Z" fill="#B3B7C2" stroke="#B3B7C2" stroke-width="0.2"/>
</svg>
