<svg width="24" height="24" viewBox="0 0 24 24" fill="none" xmlns="http://www.w3.org/2000/svg">
<g clip-path="url(#clip0)">
<path d="M21.5119 3.12586H20.0052V1.9318C20.0052 1.58796 19.7239 1.30664 19.3801 1.30664C19.0362 1.30664 18.7549 1.58796 18.7549 1.9318V3.12586H12.6283V1.9318C12.6283 1.58796 12.347 1.30664 12.0031 1.30664C11.6593 1.30664 11.378 1.58796 11.378 1.9318V3.12586H5.18885V1.9318C5.18885 1.58796 4.90753 1.30664 4.56369 1.30664C4.21985 1.30664 3.93853 1.58796 3.93853 1.9318V3.12586H2.4944C1.11904 3.12586 0 4.28242 0 5.65777V20.1928C0 21.5744 1.11279 22.6935 2.4944 22.6935H21.5056C22.8872 22.6935 24 21.5744 24 20.1991V5.65777C24.0063 4.28242 22.8872 3.12586 21.5119 3.12586ZM22.7559 20.1928C22.7559 20.8805 22.2058 21.4369 21.5181 21.4431H21.5119H2.4944C1.80672 21.4431 1.25033 20.8867 1.25033 20.1991V20.1928V5.65777C1.25033 4.96384 1.80672 4.37619 2.4944 4.37619H3.93853V5.28268C3.93853 5.62652 4.21985 5.90784 4.56369 5.90784C4.90753 5.90784 5.18885 5.62652 5.18885 5.28268V4.37619H11.378V5.28268C11.378 5.62652 11.6593 5.90784 12.0031 5.90784C12.347 5.90784 12.6283 5.62652 12.6283 5.28268V4.37619H18.7549V5.28268C18.7549 5.62652 19.0362 5.90784 19.3801 5.90784C19.7239 5.90784 20.0052 5.62652 20.0052 5.28268V4.37619H21.5119C22.2058 4.37619 22.7559 4.9701 22.7559 5.65777V20.1928Z" fill="#292223"/>
<path d="M10.3588 8.43976H9.26481C8.92097 8.43976 8.63965 8.72108 8.63965 9.06492C8.63965 9.40876 8.92097 9.69008 9.26481 9.69008H10.3588C10.7027 9.69008 10.984 9.40876 10.984 9.06492C10.984 8.72108 10.7027 8.43976 10.3588 8.43976Z" fill="#292223"/>
<path d="M14.7104 8.43976H13.6164C13.2725 8.43976 12.9912 8.72108 12.9912 9.06492C12.9912 9.40876 13.2725 9.69008 13.6164 9.69008H14.7104C15.0542 9.69008 15.3356 9.40876 15.3356 9.06492C15.3356 8.72108 15.0605 8.43976 14.7104 8.43976Z" fill="#292223"/>
<path d="M19.0991 8.43976H18.005C17.6612 8.43976 17.3799 8.72108 17.3799 9.06492C17.3799 9.40876 17.6612 9.69008 18.005 9.69008H19.0991C19.4429 9.69008 19.7242 9.40876 19.7242 9.06492C19.7242 8.72108 19.4429 8.43976 19.0991 8.43976Z" fill="#292223"/>
<path d="M10.3588 12.7533H9.26481C8.92097 12.7533 8.63965 13.0346 8.63965 13.3785C8.63965 13.7223 8.92097 14.0036 9.26481 14.0036H10.3588C10.7027 14.0036 10.984 13.7223 10.984 13.3785C10.984 13.0346 10.7027 12.7533 10.3588 12.7533Z" fill="#292223"/>
<path d="M5.97643 12.7533H4.87614C4.5323 12.7533 4.25098 13.0346 4.25098 13.3785C4.25098 13.7223 4.5323 14.0036 4.87614 14.0036H5.97017C6.31401 14.0036 6.59534 13.7223 6.59534 13.3785C6.59534 13.0346 6.32027 12.7533 5.97643 12.7533Z" fill="#292223"/>
<path d="M14.7104 12.7533H13.6164C13.2725 12.7533 12.9912 13.0346 12.9912 13.3785C12.9912 13.7223 13.2725 14.0036 13.6164 14.0036H14.7104C15.0542 14.0036 15.3356 13.7223 15.3356 13.3785C15.3356 13.0346 15.0605 12.7533 14.7104 12.7533Z" fill="#292223"/>
<path d="M19.0991 12.7533H18.005C17.6612 12.7533 17.3799 13.0346 17.3799 13.3785C17.3799 13.7223 17.6612 14.0036 18.005 14.0036H19.0991C19.4429 14.0036 19.7242 13.7223 19.7242 13.3785C19.7242 13.0346 19.4429 12.7533 19.0991 12.7533Z" fill="#292223"/>
<path d="M10.3588 17.0044H9.26481C8.92097 17.0044 8.63965 17.2857 8.63965 17.6296C8.63965 17.9734 8.92097 18.2547 9.26481 18.2547H10.3588C10.7027 18.2547 10.984 17.9734 10.984 17.6296C10.984 17.2857 10.7027 17.0044 10.3588 17.0044Z" fill="#292223"/>
<path d="M5.97643 17.0044H4.87614C4.5323 17.0044 4.25098 17.2857 4.25098 17.6296C4.25098 17.9734 4.5323 18.2547 4.87614 18.2547H5.97017C6.31401 18.2547 6.59534 17.9734 6.59534 17.6296C6.59534 17.2857 6.32027 17.0044 5.97643 17.0044Z" fill="#292223"/>
<path d="M14.7104 17.0044H13.6164C13.2725 17.0044 12.9912 17.2857 12.9912 17.6296C12.9912 17.9734 13.2725 18.2547 13.6164 18.2547H14.7104C15.0542 18.2547 15.3356 17.9734 15.3356 17.6296C15.3356 17.2857 15.0605 17.0044 14.7104 17.0044Z" fill="#292223"/>
</g>
<defs>
<clipPath id="clip0">
<rect width="24" height="24" fill="white"/>
</clipPath>
</defs>
</svg>
