<svg width="35" height="35" viewBox="0 0 35 35" fill="none" xmlns="http://www.w3.org/2000/svg">
<path d="M28.8 8.6C29.4627 7.93726 29.4627 6.86274 28.8 6.2C28.1373 5.53726 27.0627 5.53726 26.4 6.2L19.4142 13.1858C18.6332 13.9668 17.3668 13.9668 16.5858 13.1858L9.6 6.2C8.93726 5.53726 7.86274 5.53726 7.2 6.2C6.53726 6.86274 6.53726 7.93726 7.2 8.6L14.1858 15.5858C14.9668 16.3668 14.9668 17.6332 14.1858 18.4142L7.2 25.4C6.53726 26.0627 6.53726 27.1373 7.2 27.8C7.86274 28.4627 8.93726 28.4627 9.6 27.8L16.5858 20.8142C17.3668 20.0332 18.6332 20.0332 19.4142 20.8142L26.4 27.8C27.0627 28.4627 28.1373 28.4627 28.8 27.8C29.4627 27.1373 29.4627 26.0627 28.8 25.4L21.8142 18.4142C21.0332 17.6332 21.0332 16.3668 21.8142 15.5858L28.8 8.6Z" fill="#292223"/>
</svg>
