<svg width="20" height="20" viewBox="0 0 20 20" fill="none" xmlns="http://www.w3.org/2000/svg">
<path d="M9.5 2C5.916 2 3 4.90461 3 8.47461C3 9.8874 3.448 11.2298 4.29667 12.3561L9.09933 18.7992C9.11133 18.8148 9.12967 18.8207 9.143 18.8347C9.383 19.0907 9.72933 19.0263 9.90033 18.7992C11.2833 16.961 13.8183 13.5281 14.793 12.2332C14.793 12.2332 14.7933 12.2322 14.7937 12.2315L14.7997 12.2236C15.585 11.1246 16 9.8283 16 8.47461C16 4.90461 13.084 2 9.5 2ZM9.5 11.9676C7.57033 11.9676 5.99333 10.3967 5.99333 8.47461C5.99333 6.55248 7.57033 4.98164 9.5 4.98164C11.4297 4.98164 13.0067 6.55248 13.0067 8.47461C13.0067 10.3967 11.4297 11.9676 9.5 11.9676Z" fill="white"/>
</svg>
