<svg width="20" height="20" viewBox="0 0 20 20" fill="none" xmlns="http://www.w3.org/2000/svg">
<path d="M14.656 12.7442C13.8782 12.0208 13.0888 11.5827 12.3205 12.3049L11.8618 12.7415C11.5261 13.0584 10.9021 14.539 8.48922 11.5209C6.07688 8.50673 7.51242 8.03742 7.84857 7.72326L8.30984 7.28618C9.07409 6.56227 8.78567 5.65096 8.23447 4.71288L7.90183 4.14468C7.34812 3.20878 6.74516 2.59414 5.9789 3.31696L5.56486 3.71033C5.2262 3.97859 4.27956 4.85056 4.04993 6.50709C3.77357 8.49471 4.64535 10.7708 6.64265 13.2682C8.63744 15.7666 10.5905 17.0216 12.4406 16.9997C13.9782 16.9817 14.9067 16.0846 15.1971 15.7584L15.6127 15.3645C16.3769 14.6422 15.9021 13.9068 15.1238 13.1818L14.656 12.7442Z" fill="white"/>
</svg>
