<svg width="30" height="30" viewBox="0 0 30 30" xmlns="http://www.w3.org/2000/svg">
<path d="M15 24C14.7153 24 14.4408 23.8957 14.2268 23.7061C13.4189 22.9914 12.6399 22.3198 11.9527 21.7274L11.9492 21.7243C9.93423 19.9873 8.19427 18.4873 6.98364 17.0096C5.63034 15.3576 5 13.7914 5 12.0803C5 10.4179 5.56351 8.88418 6.58661 7.76153C7.62192 6.62561 9.04251 6 10.5872 6C11.7416 6 12.7989 6.36922 13.7296 7.09733C14.1992 7.46486 14.6249 7.91466 15 8.43932C15.3752 7.91466 15.8008 7.46486 16.2706 7.09733C17.2012 6.36922 18.2585 6 19.413 6C20.9575 6 22.3782 6.62561 23.4135 7.76153C24.4366 8.88418 25 10.4179 25 12.0803C25 13.7914 24.3698 15.3576 23.0165 17.0094C21.8059 18.4873 20.0661 19.9872 18.0515 21.724C17.363 22.3173 16.5828 22.99 15.773 23.7064C15.5592 23.8957 15.2846 24 15 24ZM10.5872 7.18516C9.37363 7.18516 8.25882 7.67509 7.44781 8.56481C6.62476 9.46796 6.17142 10.7164 6.17142 12.0803C6.17142 13.5194 6.70013 14.8064 7.88559 16.2534C9.03137 17.652 10.7356 19.1212 12.7089 20.8224L12.7126 20.8255C13.4024 21.4202 14.1844 22.0944 14.9983 22.8144C15.8171 22.0931 16.6003 21.4177 17.2916 20.8221C19.2647 19.1209 20.9688 17.652 22.1146 16.2534C23.2999 14.8064 23.8286 13.5194 23.8286 12.0803C23.8286 10.7164 23.3752 9.46796 22.5522 8.56481C21.7413 7.67509 20.6264 7.18516 19.413 7.18516C18.524 7.18516 17.7078 7.47103 16.9872 8.03475C16.3449 8.53734 15.8975 9.17268 15.6352 9.61723C15.5003 9.84583 15.2629 9.98228 15 9.98228C14.7371 9.98228 14.4997 9.84583 14.3648 9.61723C14.1026 9.17268 13.6552 8.53734 13.0128 8.03475C12.2922 7.47103 11.476 7.18516 10.5872 7.18516Z" stroke-width="0.6"/>
</svg>
