<svg width="35" height="35" viewBox="0 0 35 35" fill="" xmlns="http://www.w3.org/2000/svg">
<path d="M18 30C17.6298 30 17.273 29.8609 16.9949 29.6081C15.9445 28.6552 14.9319 27.7598 14.0384 26.9698L14.0339 26.9657C11.4145 24.6497 9.15255 22.6497 7.57873 20.6795C5.81944 18.4769 5 16.3885 5 14.1071C5 11.8905 5.73256 9.84557 7.06259 8.34871C8.40849 6.83415 10.2553 6 12.2633 6C13.7641 6 15.1386 6.4923 16.3484 7.46311C16.959 7.95314 17.5124 8.55288 18 9.25243C18.4878 8.55288 19.041 7.95314 19.6518 7.46311C20.8616 6.4923 22.236 6 23.7369 6C25.7447 6 27.5917 6.83415 28.9376 8.34871C30.2676 9.84557 30.9999 11.8905 30.9999 14.1071C30.9999 16.3885 30.1807 18.4769 28.4214 20.6792C26.8476 22.6497 24.5859 24.6495 21.9669 26.9653C21.0718 27.7565 20.0576 28.6534 19.0049 29.6085C18.727 29.8609 18.3699 30 18 30ZM12.2633 7.58021C10.6857 7.58021 9.23646 8.23346 8.18215 9.41975C7.11218 10.6239 6.52284 12.2885 6.52284 14.1071C6.52284 16.0259 7.21017 17.7419 8.75126 19.6712C10.2408 21.536 12.4563 23.4949 15.0215 25.7632L15.0263 25.7673C15.9231 26.5603 16.9397 27.4593 17.9978 28.4192C19.0622 27.4574 20.0804 26.557 20.979 25.7628C23.544 23.4945 25.7594 21.536 27.2489 19.6712C28.7898 17.7419 29.4771 16.0259 29.4771 14.1071C29.4771 12.2885 28.8878 10.6239 27.8178 9.41975C26.7637 8.23346 25.3142 7.58021 23.7369 7.58021C22.5812 7.58021 21.5201 7.96138 20.5833 8.713C19.7484 9.38312 19.1668 10.2302 18.8258 10.823C18.6504 11.1278 18.3418 11.3097 18 11.3097C17.6582 11.3097 17.3495 11.1278 17.1742 10.823C16.8334 10.2302 16.2518 9.38312 15.4167 8.713C14.4798 7.96138 13.4188 7.58021 12.2633 7.58021Z" stroke-width="0.6"/>
</svg>
