<svg width="26" height="24" viewBox="0 0 26 24" xmlns="http://www.w3.org/2000/svg">
<path d="M23.9374 2.68561C22.5915 1.22585 20.7447 0.421875 18.7369 0.421875C17.2361 0.421875 15.8616 0.896362 14.6516 1.83205C14.041 2.30435 13.4878 2.88219 13 3.55663C12.5124 2.88239 11.959 2.30435 11.3482 1.83205C10.1384 0.896362 8.76393 0.421875 7.26311 0.421875C5.25526 0.421875 3.40829 1.22585 2.06239 2.68561C0.732559 4.12831 0 6.09926 0 8.23564C0 10.4345 0.819443 12.4473 2.57874 14.5702C4.15256 16.4691 6.41451 18.3969 9.03391 20.629C9.92833 21.3914 10.9422 22.2554 11.9949 23.1758C12.273 23.4194 12.6299 23.5535 13 23.5535C13.3699 23.5535 13.727 23.4194 14.0047 23.1762C15.0574 22.2556 16.0719 21.3912 16.9667 20.6284C19.5857 18.3967 21.8476 16.4691 23.4215 14.57C25.1808 12.4473 26 10.4345 26 8.23544C26 6.09926 25.2674 4.12831 23.9374 2.68561Z"/>
</svg>
