<svg width="35" height="35" viewBox="0 0 35 35" fill="none" xmlns="http://www.w3.org/2000/svg">
<path d="M4.80078 10.8643V25.1103C4.80078 27.9074 7.06823 30.1748 9.86532 30.1748H24.1112C26.9083 30.1748 29.1758 27.9074 29.1758 25.1103V10.8643C29.1758 8.06726 26.9083 5.7998 24.1112 5.7998H9.86532C7.06823 5.7998 4.80078 8.06726 4.80078 10.8643ZM19.5702 24.8937C13.5582 26.968 8.00759 21.4174 10.0819 15.4053C10.7809 13.3791 12.3799 11.7799 14.4062 11.081C20.4184 9.00661 25.969 14.5572 23.8946 20.5694C23.1957 22.5957 21.5967 24.1947 19.5702 24.8937ZM25.4462 10.6168C25.3505 11.1177 24.936 11.4091 24.5073 11.4091C24.2463 11.4091 23.9803 11.3014 23.7767 11.0677C23.7587 11.047 23.7418 11.0249 23.727 11.0018C23.5167 10.6805 23.5102 10.2987 23.6889 9.98911C23.8153 9.76997 24.0195 9.61346 24.2639 9.548C24.508 9.48224 24.7633 9.51601 24.9822 9.64262C25.2919 9.82114 25.477 10.1551 25.4559 10.5381C25.4544 10.5643 25.4512 10.5909 25.4462 10.6168Z" fill="#F6F6F6"/>
<path d="M17.0007 13.2725C14.394 13.2725 12.2734 15.393 12.2734 17.9997C12.2734 20.6065 14.394 22.727 17.0007 22.727C19.6075 22.727 21.728 20.6065 21.728 17.9997C21.728 15.393 19.6075 13.2725 17.0007 13.2725Z" fill="#F6F6F6"/>
<path d="M24.5 9C23.6729 9 23 9.67286 23 10.5C23 11.3271 23.6729 12 24.5 12C25.3271 12 26 11.3271 26 10.5C26 9.67286 25.3271 9 24.5 9Z" fill="#292223"/>
</svg>
