<svg width="35" height="35" viewBox="0 0 35 35" fill="none" xmlns="http://www.w3.org/2000/svg">
<path d="M18 5C12.4862 5 8 9.44234 8 14.9023C8 17.0631 8.68923 19.1162 9.99487 20.8387L17.3836 30.6928C17.4021 30.7167 17.4303 30.7258 17.4508 30.7472C17.82 31.1387 18.3528 31.0402 18.6159 30.6928C20.7436 27.8816 24.6436 22.6313 26.1431 20.6508C26.1431 20.6508 26.1436 20.6493 26.1441 20.6482L26.1533 20.6361C27.3615 18.9552 28 16.9727 28 14.9023C28 9.44234 23.5138 5 18 5ZM18 20.2445C15.0313 20.2445 12.6051 17.8421 12.6051 14.9023C12.6051 11.9626 15.0313 9.56016 18 9.56016C20.9687 9.56016 23.3949 11.9626 23.3949 14.9023C23.3949 17.8421 20.9687 20.2445 18 20.2445Z" fill="#F6F6F6"/>
</svg>
