<svg width="30" height="30" viewBox="0 0 30 30" fill="none" xmlns="http://www.w3.org/2000/svg">
<path d="M23.9893 22.1422L22.9754 9.76224C22.9123 8.96461 22.2162 8.33984 21.3908 8.33984H19.3883V8.25262C19.3883 5.90768 17.4198 4 15.0001 4C12.5804 4 10.6119 5.90768 10.6119 8.25257V8.3398H8.60942C7.78395 8.3398 7.08786 8.96457 7.0249 9.76052L6.01073 22.1439C5.93225 23.1354 6.28718 24.1225 6.98446 24.852C7.68175 25.5815 8.6702 26 9.69635 26H20.3038C21.3299 26 22.3184 25.5816 23.0156 24.852C23.7129 24.1224 24.0678 23.1354 23.9893 22.1422ZM11.9416 8.25257C11.9416 6.61826 13.3137 5.28863 15.0001 5.28863C16.6865 5.28863 18.0585 6.6183 18.0585 8.25257V8.3398H11.9416V8.25257ZM22.0401 23.9764C21.587 24.4503 20.9704 24.7114 20.3038 24.7114H9.6964C9.02971 24.7114 8.41312 24.4503 7.96006 23.9764C7.50705 23.5024 7.28562 22.8866 7.33652 22.2441L8.35056 9.86072C8.36085 9.73044 8.47454 9.62843 8.60937 9.62843H10.6118V11.2155C10.6118 11.5713 10.9095 11.8598 11.2767 11.8598C11.6439 11.8598 11.9416 11.5713 11.9416 11.2155V9.62843H18.0586V11.2155C18.0586 11.5713 18.3563 11.8598 18.7235 11.8598C19.0906 11.8598 19.3883 11.5713 19.3883 11.2155V9.62843H21.3908C21.5256 9.62843 21.6393 9.73044 21.6497 9.86244L22.6635 22.2424C22.7145 22.8866 22.4931 23.5024 22.0401 23.9764Z" fill="#B3B7C2" stroke="#B3B7C2" stroke-width="0.4"/>
</svg>
