<svg width="38" height="34" viewBox="0 0 38 34" fill="none" xmlns="http://www.w3.org/2000/svg">
<path d="M9 25.2L12.5 5.59998C12.5 5.59998 17 5.59998 19.6 5.59998C22.2 5.59998 26.4 5.59998 26.2 10.5C26 15.4 23.2 17.2 20 17.7C16.8 18.2 15.3 17.8 15.3 17.8C15.3 17.8 14 25 14.1 25.1C14.2 25.3 9 25.2 9 25.2Z" stroke="#292223" stroke-width="1.8" stroke-miterlimit="10" stroke-linecap="round" stroke-linejoin="round"/>
<path d="M26.2012 11C27.7012 11.4 28.9012 12.5 28.8012 15C28.6012 19.3 26.2012 20.9 23.4012 21.4C20.6012 21.9 19.3012 21.5 19.3012 21.5L18.2012 27.9H13.7012L14.2012 25.2" stroke="#292223" stroke-width="1.8" stroke-miterlimit="10" stroke-linecap="round" stroke-linejoin="round"/>
</svg>
