<svg width="60" height="60" viewBox="0 0 60 60" fill="none" xmlns="http://www.w3.org/2000/svg">
<circle cx="30" cy="30" r="30" fill="#FFE2E8"/>
<path d="M20 38.2L23.5 18.6C23.5 18.6 28 18.6 30.6 18.6C33.2 18.6 37.4 18.6 37.2 23.5C37 28.4 34.2 30.2 31 30.7C27.8 31.2 26.3 30.8 26.3 30.8C26.3 30.8 25 38 25.1 38.1C25.2 38.3 20 38.2 20 38.2Z" stroke="#292223" stroke-width="1.8" stroke-miterlimit="10" stroke-linecap="round" stroke-linejoin="round"/>
<path d="M37.2012 24C38.7012 24.4 39.9012 25.5 39.8012 28C39.6012 32.3 37.2012 33.9 34.4012 34.4C31.6012 34.9 30.3012 34.5 30.3012 34.5L29.2012 40.9H24.7012L25.2012 38.2" stroke="#292223" stroke-width="1.8" stroke-miterlimit="10" stroke-linecap="round" stroke-linejoin="round"/>
</svg>
