<svg width="35" height="35" viewBox="0 0 35 35" fill="none" xmlns="http://www.w3.org/2000/svg">
<path d="M24.872 21.6163C23.6404 20.5313 22.3906 19.874 21.1742 20.9574L20.4478 21.6122C19.9164 22.0875 18.9283 24.3084 15.1079 19.7814C11.2884 15.2601 13.5613 14.5561 14.0936 14.0849L14.8239 13.4293C16.034 12.3434 15.5773 10.9764 14.7046 9.56932L14.1779 8.71702C13.3012 7.31318 12.3465 6.39121 11.1333 7.47544L10.4777 8.0655C9.94149 8.46788 8.44263 9.77584 8.07905 12.2606C7.64149 15.2421 9.02181 18.6562 12.1842 22.4022C15.3426 26.1499 18.435 28.0324 21.3643 27.9996C23.7987 27.9725 25.269 26.6269 25.7288 26.1376L26.3867 25.5467C27.5968 24.4633 26.845 23.3603 25.6126 22.2727L24.872 21.6163Z" fill="#292223"/>
</svg>
