<svg width="35" height="35" viewBox="0 0 35 35" fill="none" xmlns="http://www.w3.org/2000/svg">
<path d="M16.9166 23.0333C18.7831 23.0333 20.502 22.3977 21.8744 21.3357L27.4359 26.8972C27.6373 27.0987 27.9021 27.2 28.1665 27.2C28.4308 27.2 28.6956 27.0987 28.8971 26.8972C29.301 26.4933 29.301 25.84 28.897 25.4361L23.3355 19.8745C24.3976 18.5021 25.0331 16.7832 25.0331 14.9167C25.0331 10.4412 21.392 6.8 16.9166 6.8C12.4411 6.8 8.8 10.4412 8.8 14.9166C8.8 19.3921 12.4412 23.0333 16.9166 23.0333ZM16.9166 20.9666C13.5804 20.9666 10.8667 18.2529 10.8667 14.9166C10.8667 11.5804 13.5804 8.86664 16.9166 8.86664C20.2528 8.86664 22.9665 11.5804 22.9665 14.9166C22.9665 18.2529 20.2527 20.9666 16.9166 20.9666Z" fill="#292223" stroke="#292223" stroke-width="0.4"/>
</svg>
