<svg width="22" height="22" viewBox="0 0 22 22" xmlns="http://www.w3.org/2000/svg">
<path d="M21.942 8.31255C21.7971 7.8477 21.402 7.51859 20.9364 7.47462L14.5856 6.87297L12.0758 0.741244C11.8905 0.290753 11.4688 0 10.9995 0C10.5302 0 10.1084 0.290753 9.92428 0.741244L7.41443 6.87297L1.06268 7.47462C0.597068 7.51946 0.20279 7.84857 0.0570973 8.31255C-0.0877566 8.77741 0.0460192 9.28727 0.398167 9.60955L5.19882 14.0022L3.78335 20.5077C3.67979 20.986 3.85771 21.4807 4.23805 21.7676C4.44249 21.9226 4.68269 22 4.92372 22C5.13084 22 5.33814 21.9426 5.52328 21.827L10.9995 18.4101L16.4748 21.827C16.8764 22.0774 17.3815 22.0545 17.761 21.7676C18.1413 21.4807 18.3193 20.986 18.2157 20.5077L16.8002 14.0022L21.6009 9.60955C21.9529 9.28727 22.0868 8.77846 21.942 8.31255Z"/>
</svg>
