<svg width="18" height="18" viewBox="0 0 18 18" fill="none" xmlns="http://www.w3.org/2000/svg">
<path d="M18.0741 6.80118C17.9548 6.42084 17.6293 6.15157 17.2458 6.1156L12.0145 5.62334L9.94708 0.606473C9.79444 0.237889 9.44712 0 9.06054 0C8.67396 0 8.32651 0.237889 8.17483 0.606473L6.1074 5.62334L0.875276 6.1156C0.491736 6.15229 0.166958 6.42156 0.0469467 6.80118C-0.0723737 7.18151 0.0378213 7.59868 0.327896 7.86236L4.28234 11.4563L3.11637 16.779C3.03106 17.1704 3.17762 17.5751 3.49092 17.8098C3.65933 17.9367 3.85718 18 4.05572 18C4.22634 18 4.39709 17.953 4.5496 17.8584L9.06054 15.0628L13.5707 17.8584C13.9015 18.0633 14.3176 18.0446 14.6302 17.8098C14.9435 17.5751 15.09 17.1704 15.0047 16.779L13.8387 11.4563L17.7932 7.86236C18.0831 7.59868 18.1935 7.18237 18.0741 6.80118Z" fill="#DBDCE4"/>
</svg>
